<?xml version="1.0" encoding="UTF-8"?>
<svg id="Layer_1" data-name="Layer 1" xmlns="http://www.w3.org/2000/svg" xmlns:xlink="http://www.w3.org/1999/xlink" viewBox="0 0 1920 1080">
  <defs>
    <style>
      .cls-1 {
        mask: url(#mask);
      }

      .cls-2, .cls-3 {
        fill: #f2f4ad;
      }

      .cls-4 {
        fill: #fff;
      }

      .cls-5, .cls-6 {
        fill: #216e3d;
      }

      .cls-7 {
        fill: #214734;
      }

      .cls-3, .cls-6 {
        fill-rule: evenodd;
      }
    </style>
    <mask id="mask" x="213.56" y="350.28" width="1341.09" height="444.23" maskUnits="userSpaceOnUse">
      <g id="mask0_2_2" data-name="mask0 2 2">
        <path class="cls-4" d="m1411.93,428.58h142.7v-78.01h-492.16c-46.72,0-83.51,10.84-110.35,32.5-26.85,21.67-40.27,54.49-40.27,98.46,0,47.57,9.72,80.76,29.17,99.57,19.45,18.82,51.9,27.91,97.35,27.27h50.74c22.61,5.12,34.4,24.31,32.19,57.08-2.22,32.77-24.47,49.79-66.75,51.05l-412.89-.63v-72.93h63.42c64.69,0,107.82-16.49,129.38-49.47,21.56-32.98,32.24-65.22,32.03-96.72.21-31.5-10.46-63.74-32.03-96.72-21.56-32.98-64.69-49.47-129.38-49.47h-155.7v365.31h-151.27c-23.89,0-42.33-3.85-55.33-11.57-13-7.71-22.41-22.25-28.22-43.6-5.82-21.35-8.72-40.48-8.72-57.4v-61.52c0-16.91,2.9-36.04,8.72-57.4,5.81-21.35,15.22-35.88,28.22-43.6,13-7.71,31.44-11.57,55.33-11.57h100.84v-78.64h-115.74c-64.69,0-109.08,16.76-133.18,50.26-24.1,33.51-36.26,80.5-36.47,140.95v61.52c.21,60.46,12.37,107.45,36.47,140.95,24.1,33.51,68.5,50.26,133.18,50.26h680.54c46.72,0,83.5-10.83,110.35-32.5,26.84-21.67,40.27-56.07,40.27-103.22s-9.73-80.75-29.17-99.57c-19.45-18.81-51.9-27.91-97.35-27.27h-44.39c-27.91-5.28-40.75-23.52-38.53-54.7,2.22-31.18,24.47-47.41,66.75-48.68h188.75c-5.53,15.36-8.3,33.01-8.3,52.96,0,47.57,9.72,80.76,29.17,99.57,19.45,18.82,51.9,27.91,97.35,27.27h50.74c23.67,5.29,34.41,24.31,32.19,57.08-2.22,32.77-24.47,49.79-66.75,51.05h-137.62v78.01h146.82c46.72,0,83.5-10.83,110.35-32.5,26.84-21.67,40.27-56.07,40.27-103.22s-9.73-80.75-29.17-99.57c-19.45-18.81-51.9-27.91-97.35-27.27h-44.39c-27.91-5.28-40.75-23.52-38.53-54.7,2.22-31.18,24.47-47.41,66.75-48.68h-.03Zm-770.28.63h48.52c23.89,0,41.7,2.91,53.43,8.72,11.73,5.82,19.98,13.21,24.73,22.2,4.76,8.99,7.34,21.2,7.77,36.63-.43,15.43-3.01,27.64-7.77,36.63s-13,16.39-24.73,22.2c-11.73,5.82-29.55,8.72-53.43,8.72h-48.52v-135.09h0Z"/>
      </g>
    </mask>
  </defs>
  <path class="cls-7" d="m1411.93,428.58h142.7v-78.01h-492.16c-46.72,0-83.51,10.84-110.35,32.5-26.85,21.67-40.27,54.49-40.27,98.46,0,47.57,9.72,80.76,29.17,99.57,19.45,18.82,51.9,27.91,97.35,27.27h50.74c22.61,5.12,34.4,24.31,32.19,57.08-2.22,32.77-24.47,49.79-66.75,51.05l-412.89-.63v-72.93h63.42c64.69,0,107.82-16.49,129.38-49.47,21.56-32.98,32.24-65.22,32.03-96.72.21-31.5-10.46-63.74-32.03-96.72-21.56-32.98-64.69-49.47-129.38-49.47h-155.7v365.31h-151.27c-23.89,0-42.33-3.85-55.33-11.57-13-7.71-22.41-22.25-28.22-43.6-5.82-21.35-8.72-40.48-8.72-57.4v-61.52c0-16.91,2.9-36.04,8.72-57.4,5.81-21.35,15.22-35.88,28.22-43.6,13-7.71,31.44-11.57,55.33-11.57h100.84v-78.64h-115.74c-64.69,0-109.08,16.76-133.18,50.26-24.1,33.51-36.26,80.5-36.47,140.95v61.52c.21,60.46,12.37,107.45,36.47,140.95,24.1,33.51,68.5,50.26,133.18,50.26h680.54c46.72,0,83.5-10.83,110.35-32.5,26.84-21.67,40.27-56.07,40.27-103.22s-9.73-80.75-29.17-99.57c-19.45-18.81-51.9-27.91-97.35-27.27h-44.39c-27.91-5.28-40.75-23.52-38.53-54.7,2.22-31.18,24.47-47.41,66.75-48.68h188.75c-5.53,15.36-8.3,33.01-8.3,52.96,0,47.57,9.72,80.76,29.17,99.57,19.45,18.82,51.9,27.91,97.35,27.27h50.74c23.67,5.29,34.41,24.31,32.19,57.08-2.22,32.77-24.47,49.79-66.75,51.05h-137.62v78.01h146.82c46.72,0,83.5-10.83,110.35-32.5,26.84-21.67,40.27-56.07,40.27-103.22s-9.73-80.75-29.17-99.57c-19.45-18.81-51.9-27.91-97.35-27.27h-44.39c-27.91-5.28-40.75-23.52-38.53-54.7,2.22-31.18,24.47-47.41,66.75-48.68h-.03Zm-770.28.63h48.52c23.89,0,41.7,2.91,53.43,8.72,11.73,5.82,19.98,13.21,24.73,22.2,4.76,8.99,7.34,21.2,7.77,36.63-.43,15.43-3.01,27.64-7.77,36.63s-13,16.39-24.73,22.2c-11.73,5.82-29.55,8.72-53.43,8.72h-48.52v-135.09h0Z"/>
  <g class="cls-1">
    <g>
      <path class="cls-2" d="m316.5,579.5c-13,157.5,45.26,181.48,80.26,181.48,62.68-.25,696.24,3.02,696.24,3.02,0,0,123.39,1.78,121-100l-123.41,64.31H365.66l-49.16-148.81Z"/>
      <path class="cls-5" d="m1064.12,715.88H393.09v26h671.03v-26Z"/>
      <path class="cls-2" d="m1070.93,376.58c-56.86,1.65-95.19,41.01-94.93,97.21.22,48.19,7.92,92.53,59.2,98.39,0,0-79.41,11.48-89.77-53.33-10.36-64.81,21.24-144,21.24-144,0,0,27.33-21.17,104.25-24.28"/>
      <path class="cls-2" d="m1554.2,350.57h-483.27v26h483.27v-26Z"/>
      <path class="cls-5" d="m1072.57,350.58c-94.33-2.66-159.94,29.46-161.16,130.79-1.14,94.82,36.1,129.88,128.3,126.85v-35.84c-64.4-1.9-96.14-35.13-92.72-100.39,4.49-85.55,49.73-119.4,125.58-121.4"/>
      <path class="cls-5" d="m1089.25,572.55h-50.24v35.84h50.24v-35.84Z"/>
      <path class="cls-2" d="m1087.94,608.38c33.2-1.08,50.22,17.02,50.22,48.33,0,23.25-13.51,54.12-73.84,59.11,0,0,56.81-3.51,56.81-58.63,0-45.41-33.18-48.81-33.18-48.81h-.01Z"/>
      <path class="cls-5" d="m1088.36,572.53c46.96.18,126.14.51,126.14,86.47,0,48.99-29.09,82.86-151.26,82.86v-26.35c67.79-1.49,101-21.32,101.26-56.51.26-35.26-26.88-51.58-75.26-50.66"/>
      <path class="cls-2" d="m1004.27,481.69c.34-48.1,25.33-67.99,39.76-73.77,4.76-1.9,9.32-3.71,19.25-3.86l489.67-1.38v13.62s-489.62-.84-499.34.55c-48.86,6.99-49.35,64.85-49.35,64.85h.01Z"/>
      <path class="cls-5" d="m1004.27,481.69c4.24-53.35,64.36-53.14,64.36-53.14l484.32.03v-12.29h-490.96c-59.57.65-57.72,65.39-57.72,65.39h0Z"/>
      <path class="cls-3" d="m976,473.64c-.26-56.2,38.07-95.56,94.93-97.21h0s483.27,0,483.27,0v-26h-483.27v26-26c-76.93,3.11-104.26,24.28-104.26,24.28,0,0-31.6,79.19-21.24,144s89.77,53.33,89.77,53.33c-51.28-5.86-58.98-50.2-59.2-98.39Z"/>
      <path class="cls-6" d="m1072.57,350.43c-94.33-2.66-159.94,29.46-161.16,130.79-1.14,94.58,35.91,129.7,127.6,126.87v.15h50.24v-35.84h-49.54v-.17c-64.4-1.9-96.14-35.13-92.72-100.39,4.49-85.55,49.73-119.4,125.58-121.4h0Zm-762.07,234.57c-3.49,116.77,31.15,154.49,84.5,157v-.27h669.12v-26H393.09v.15l-39.9-83.6s-31.22-73.34-42.69-47.28Z"/>
      <path class="cls-2" d="m1004.27,481.54c.34-48.1,25.33-67.99,39.76-73.77,4.76-1.9,9.32-3.71,19.25-3.86l489.67-1.38v13.62s-489.62-.84-499.34.55c-48.86,6.99-49.35,64.85-49.35,64.85h.01Z"/>
      <path class="cls-5" d="m1004.27,481.54c4.24-53.35,64.36-53.14,64.36-53.14l484.32.03v-12.29h-490.96c-59.57.65-57.72,65.39-57.72,65.39h0Z"/>
    </g>
  </g>
  <path class="cls-7" d="m1727.55,355.32h-74.47c-19.24,0-37.91-6.58-52.91-18.66l-23.6-19c-6.96-5.6-15.62-8.66-24.55-8.66h-45.95c-7.21,0-10.79,8.77-5.64,13.84l16.77,16.53c8.26,8.14,14.25,18.31,17.36,29.49l.36,1.25c3.34,11.98,3.25,24.65-.26,36.58-3.17,10.84-9.07,20.68-17.1,28.61l-17.12,16.87c-5.15,5.07-1.57,13.84,5.65,13.84h45.95c8.92,0,17.58-3.06,24.54-8.66l23.6-19c15-12.08,33.66-18.66,52.91-18.66h74.47c17.55,0,34.87-3.9,50.73-11.43l16.59-7.89c10.83-5.14,10.83-20.58,0-25.73l-16.59-7.88c-15.86-7.53-33.18-11.44-50.73-11.44h-.01Z"/>
</svg>